<?xml version="1.0" standalone="no"?>
<!DOCTYPE svg PUBLIC "-//W3C//DTD SVG 20010904//EN"
 "http://www.w3.org/TR/2001/REC-SVG-20010904/DTD/svg10.dtd">
<svg version="1.0" xmlns="http://www.w3.org/2000/svg"
 width="3580.000000pt" height="1820.000000pt" viewBox="0 0 3580.000000 1820.000000"
 preserveAspectRatio="xMidYMid meet">
<metadata>
Created by potrace 1.15, written by Peter Selinger 2001-2017
</metadata>
<g transform="translate(0.000000,1820.000000) scale(0.100000,-0.100000)"
fill="#000000" stroke="none">
<path d="M5280 18166 c-3 -3 -127 -10 -275 -17 -427 -18 -741 -40 -1130 -78
-55 -6 -145 -15 -200 -20 -55 -6 -143 -15 -195 -21 -52 -6 -133 -16 -180 -21
-139 -16 -232 -27 -275 -34 -44 -6 -134 -18 -265 -35 -47 -6 -107 -15 -135
-20 -27 -5 -84 -14 -125 -20 -93 -12 -677 -107 -745 -120 -27 -6 -99 -19 -160
-30 -105 -19 -167 -31 -265 -51 -25 -5 -92 -18 -150 -30 -58 -11 -179 -36
-270 -56 -91 -19 -185 -39 -210 -44 -25 -5 -74 -16 -110 -25 -36 -8 -101 -24
-145 -34 -44 -10 -157 -38 -251 -61 l-171 -42 5 -2111 c5 -2032 8 -2312 31
-2531 19 -188 42 -368 55 -440 3 -16 10 -61 16 -100 11 -72 19 -114 46 -250 9
-44 18 -91 21 -105 5 -26 29 -130 64 -277 55 -229 187 -656 274 -888 387
-1038 959 -1987 1679 -2790 103 -115 454 -466 571 -571 859 -772 1845 -1294
2880 -1524 164 -37 148 -38 444 35 774 193 1504 533 2176 1013 144 103 326
244 415 321 36 31 81 69 100 85 179 146 603 571 756 756 16 19 37 44 48 55 65
71 282 348 402 515 836 1162 1377 2530 1553 3925 56 444 54 337 61 2690 4
1506 3 2183 -5 2191 -21 24 -621 176 -1055 269 -317 68 -441 94 -565 115 -27
5 -89 16 -136 24 -254 46 -582 98 -784 126 -44 6 -109 15 -145 20 -75 11 -187
25 -315 40 -49 6 -126 15 -170 20 -44 5 -105 12 -135 15 -30 3 -95 10 -145 15
-454 46 -895 78 -1390 101 -247 11 -1487 24 -1495 15z m1140 -366 c315 -16
525 -34 940 -80 142 -15 418 -53 598 -80 34 -6 90 -14 125 -19 61 -10 117 -19
247 -42 36 -6 89 -15 118 -20 63 -11 140 -25 207 -38 28 -5 77 -14 110 -21 88
-16 153 -29 210 -40 28 -6 70 -15 95 -20 25 -5 66 -14 93 -20 26 -5 66 -14 90
-19 63 -13 147 -32 192 -43 22 -5 58 -13 80 -18 22 -5 58 -13 80 -18 22 -6 63
-15 90 -22 28 -6 66 -15 85 -20 19 -5 54 -14 78 -20 23 -5 60 -14 82 -20 22
-5 58 -14 80 -20 22 -5 57 -14 78 -19 20 -5 55 -15 77 -21 22 -6 56 -15 75
-20 19 -5 52 -13 73 -19 20 -6 54 -16 75 -22 20 -5 52 -14 70 -20 17 -5 48
-13 67 -19 19 -5 51 -14 70 -20 19 -5 50 -14 68 -19 17 -5 44 -14 60 -20 l27
-11 0 -2527 c0 -2433 -3 -2652 -31 -2938 -17 -182 -65 -486 -99 -630 -38 -165
-62 -259 -102 -400 -16 -56 -107 -336 -118 -360 -4 -11 -25 -63 -45 -115 -20
-52 -43 -110 -51 -127 -8 -18 -20 -48 -28 -65 -235 -548 -600 -1113 -997
-1543 -73 -79 -366 -366 -419 -411 -19 -16 -55 -47 -80 -69 -172 -154 -491
-377 -739 -519 -385 -221 -786 -384 -1186 -482 -33 -8 -76 -19 -95 -24 -19 -5
-62 -14 -95 -20 -33 -6 -78 -15 -100 -20 -22 -5 -80 -14 -130 -20 -49 -6 -99
-14 -110 -17 -39 -9 -252 -23 -450 -29 -284 -9 -645 25 -932 87 -140 30 -223
49 -253 59 -14 4 -45 13 -70 20 -378 106 -808 295 -1155 508 -347 212 -613
421 -924 727 -466 457 -813 940 -1099 1528 -203 415 -327 766 -436 1227 -52
220 -88 454 -128 820 -8 74 -12 873 -15 2726 l-4 2622 23 5 c13 3 39 10 58 16
19 5 53 15 75 21 22 6 55 15 73 21 17 5 48 14 67 19 19 6 50 14 68 19 61 18
112 32 147 41 19 5 53 14 75 20 43 12 85 23 155 40 25 6 61 15 80 20 19 5 54
14 78 20 23 5 61 15 85 21 23 5 60 14 82 19 22 5 60 14 85 20 25 6 65 15 90
20 25 6 65 15 90 20 56 14 117 27 173 39 23 5 67 14 97 21 90 20 203 43 290
60 30 5 78 14 105 20 28 5 77 15 110 21 33 6 83 15 110 20 64 12 132 24 220
39 39 6 95 16 125 21 658 109 1231 171 1825 198 132 7 245 14 250 16 15 7 708
-4 915 -15z m-6330 -1505 c0 -8 -7 -15 -15 -15 -8 0 -15 7 -15 15 0 8 7 15 15
15 8 0 15 -7 15 -15z m37 -7 c-3 -8 -6 -5 -6 6 -1 11 2 17 5 13 3 -3 4 -12 1
-19z m100 -38 c-7 -27 17 -50 44 -43 19 5 20 2 17 -28 -3 -30 -1 -34 20 -31
12 2 22 -2 22 -7 0 -6 9 -11 20 -11 15 0 20 -7 20 -25 0 -20 -5 -25 -25 -25
-20 0 -25 5 -26 28 0 24 -1 24 -9 7 -12 -30 13 -53 51 -47 l31 5 -3 -52 c-2
-28 0 -51 4 -51 4 0 19 -11 32 -25 21 -20 25 -34 25 -80 0 -32 4 -55 11 -55 6
0 9 -42 8 -121 -1 -78 3 -125 10 -132 7 -7 11 -53 11 -119 0 -65 4 -108 10
-108 7 0 10 -175 10 -505 0 -330 -3 -505 -10 -505 -5 0 -10 -8 -10 -18 0 -10
-5 -23 -11 -29 -8 -8 -11 -45 -10 -102 2 -69 -1 -91 -11 -91 -10 0 -12 -15
-10 -55 4 -51 2 -57 -28 -85 -27 -26 -33 -38 -34 -77 -1 -40 -5 -49 -26 -60
-18 -9 -20 -13 -7 -13 11 0 17 -8 17 -25 0 -18 -5 -25 -20 -25 -11 0 -20 -5
-20 -11 0 -5 -10 -9 -22 -7 -21 3 -23 -1 -20 -31 3 -31 2 -33 -19 -28 -16 4
-19 3 -10 -6 6 -6 11 -18 10 -26 0 -11 -2 -12 -6 -3 -2 6 -19 11 -36 11 -18
-1 -24 -3 -14 -6 21 -5 23 -33 2 -33 -8 0 -15 5 -15 10 0 17 -25 11 -40 -10
-15 -21 -40 -27 -40 -10 0 6 -7 10 -15 10 -15 0 -19 -10 -16 -42 2 -11 -5 -18
-15 -18 -11 0 -15 6 -11 20 3 13 0 20 -9 20 -12 0 -14 199 -14 1345 l0 1345
96 0 c92 0 96 -1 91 -20z m40 -22 c-3 -8 -6 -5 -6 6 -1 11 2 17 5 13 3 -3 4
-12 1 -19z m-140 -2680 c-3 -8 -6 -5 -6 6 -1 11 2 17 5 13 3 -3 4 -12 1 -19z"/>
<path d="M5239 17585 c-4 -3 -91 -10 -195 -16 -247 -14 -477 -34 -694 -59 -47
-5 -123 -14 -170 -19 -160 -19 -520 -71 -702 -101 -32 -6 -84 -14 -115 -20
-71 -11 -162 -27 -228 -39 -27 -5 -79 -15 -115 -21 -36 -6 -85 -16 -110 -21
-25 -4 -70 -13 -100 -19 -71 -14 -133 -26 -195 -40 -27 -6 -70 -15 -95 -20
-43 -9 -83 -17 -185 -40 -25 -5 -65 -14 -90 -20 -25 -5 -64 -14 -87 -19 -24
-6 -63 -15 -88 -21 -25 -6 -63 -15 -85 -20 -42 -9 -106 -25 -167 -40 -21 -6
-55 -14 -75 -20 -51 -12 -110 -27 -158 -39 -22 -5 -58 -15 -80 -21 -22 -6 -56
-15 -75 -20 -38 -9 -94 -25 -150 -41 -19 -6 -50 -13 -68 -16 -18 -3 -35 -9
-38 -14 -3 -5 -16 -9 -30 -9 -14 0 -34 -5 -45 -10 -19 -11 -19 -43 -19 -1986
l0 -1976 23 6 c21 5 169 27 372 56 365 52 410 58 745 100 722 92 1751 187
2385 220 94 5 280 15 415 22 311 16 1285 16 1600 -1 129 -6 314 -16 410 -21
96 -5 202 -11 235 -14 33 -3 130 -11 215 -16 819 -55 1995 -185 2810 -310 30
-5 89 -13 130 -19 41 -6 87 -14 103 -17 l27 -6 0 1976 0 1976 -22 9 c-51 19
-96 31 -116 31 -11 0 -23 4 -26 9 -3 5 -20 11 -38 14 -18 3 -51 10 -73 17 -22
6 -51 14 -65 16 -14 3 -34 9 -45 14 -11 5 -33 11 -50 15 -16 3 -47 10 -67 15
-21 6 -57 15 -80 20 -24 6 -59 15 -78 20 -19 5 -55 14 -80 20 -25 6 -63 15
-85 21 -22 6 -58 14 -80 19 -22 5 -60 14 -85 20 -25 6 -64 15 -87 21 -24 5
-63 14 -88 19 -25 6 -65 15 -90 20 -25 6 -65 15 -90 20 -108 24 -143 31 -190
41 -27 5 -71 14 -97 19 -79 16 -150 30 -203 40 -27 5 -72 14 -100 19 -63 12
-164 30 -232 42 -29 5 -79 13 -110 19 -533 92 -1064 156 -1678 201 -151 11
-1347 24 -1356 14z m2070 -619 c-1 -25 -16 -47 -69 -103 -66 -70 -84 -104 -66
-128 10 -15 18 -11 76 34 71 54 172 111 199 111 9 0 22 5 28 11 7 7 48 11 100
12 75 0 97 -4 147 -28 57 -26 156 -107 156 -128 0 -15 -32 -36 -55 -37 -18 0
-129 -53 -265 -126 -90 -49 -185 -82 -298 -104 -29 -5 -162 -10 -295 -10 -247
0 -334 -9 -441 -45 -136 -46 -209 -122 -208 -215 1 -93 103 -154 300 -181 78
-10 264 0 572 32 360 37 502 49 700 59 342 17 618 10 780 -21 30 -5 70 -12 88
-16 18 -3 35 -9 38 -14 3 -5 14 -9 25 -9 10 0 27 -4 37 -9 9 -5 48 -24 87 -42
147 -71 255 -215 255 -341 0 -124 -79 -252 -192 -309 -58 -30 -135 -112 -149
-160 -35 -115 90 -173 397 -183 203 -7 224 -14 224 -73 0 -29 -43 -111 -70
-133 -24 -19 -50 -74 -50 -103 0 -35 6 -43 75 -101 l30 -25 -25 -23 c-37 -34
-75 -48 -129 -48 -34 0 -51 -5 -55 -15 -14 -37 38 -95 85 -95 25 0 59 -26 59
-46 0 -7 -12 -22 -27 -34 -51 -40 -91 -50 -195 -50 -105 0 -134 -10 -180 -65
-27 -32 -23 -97 8 -126 54 -50 77 -105 78 -183 0 -76 -20 -160 -43 -179 -11
-9 -19 -5 -41 21 -29 35 -38 37 -86 20 -45 -16 -102 4 -150 53 -21 22 -44 39
-50 39 -7 0 -39 -26 -71 -58 -47 -48 -66 -60 -101 -66 -53 -8 -103 0 -161 27
-42 20 -45 20 -90 3 -75 -29 -76 -29 -79 39 -5 85 11 126 73 194 30 32 55 64
55 70 0 6 -13 11 -29 11 -36 0 -91 18 -114 38 -10 9 -25 31 -34 49 -11 23 -22
33 -38 33 -29 0 -48 23 -40 49 3 10 22 31 41 46 97 74 247 85 362 27 72 -37
104 -40 149 -12 138 84 167 364 41 402 -30 9 -70 7 -201 -10 -89 -12 -190 -22
-222 -22 -68 0 -171 22 -217 46 -57 30 -124 102 -154 167 -26 55 -29 75 -32
179 -3 91 -7 120 -19 130 -12 10 -60 13 -182 12 -138 0 -179 -4 -246 -22 -114
-31 -270 -111 -385 -198 -150 -113 -260 -179 -375 -224 -202 -78 -392 -107
-594 -90 -192 17 -331 55 -489 133 -91 45 -105 49 -118 35 -12 -11 -13 -21 -4
-42 23 -62 4 -145 -48 -200 -57 -60 -190 -137 -342 -197 -154 -60 -225 -164
-205 -296 4 -26 8 -64 8 -83 l2 -35 -44 3 c-99 6 -235 98 -289 194 -15 26 -34
48 -43 48 -8 0 -30 -16 -49 -35 -27 -28 -34 -44 -38 -87 -3 -36 1 -67 12 -92
28 -68 -12 -86 -94 -41 -25 14 -69 37 -98 51 -51 25 -53 25 -100 10 -26 -9
-64 -28 -85 -41 -40 -28 -44 -46 -26 -105 5 -19 14 -64 20 -99 12 -80 -1 -131
-42 -165 -33 -28 -69 -34 -69 -13 0 25 -35 45 -92 51 -92 12 -161 74 -174 158
-4 21 -10 40 -14 43 -4 2 -37 -11 -74 -30 -115 -59 -175 -57 -243 8 -29 27
-35 29 -58 19 -58 -27 -69 -17 -65 57 4 81 88 199 166 236 18 8 36 20 40 26 4
6 -13 30 -38 53 -67 62 -88 97 -88 148 0 35 -5 49 -25 66 -32 28 -31 35 2 58
22 14 47 18 108 18 70 0 88 -4 145 -32 36 -17 96 -55 133 -83 l68 -52 72 5
c239 17 807 328 1020 558 35 38 75 73 88 78 13 5 65 12 115 16 152 11 287 57
376 128 l40 31 54 -26 c170 -84 295 26 400 349 20 65 42 115 51 118 8 4 137 2
287 -4 344 -13 1544 -30 2086 -29 471 0 494 3 538 69 27 41 23 72 -14 111
-101 106 -430 148 -999 127 -322 -11 -319 -11 -774 -64 -181 -21 -532 -16
-641 10 -99 24 -207 74 -258 121 -23 20 -54 62 -69 93 -23 47 -27 68 -26 130
1 61 6 84 33 140 66 135 179 236 325 292 11 4 31 12 45 18 25 10 66 21 154 41
27 7 98 14 158 18 117 7 133 13 144 61 10 46 27 75 68 120 49 52 79 66 171 82
39 7 86 18 105 25 37 13 60 10 59 -9z m-2979 -41 c119 -16 150 -24 235 -54 32
-11 60 -21 61 -21 1 0 23 20 48 45 26 25 55 45 65 45 9 0 41 -20 70 -45 l52
-44 47 18 c90 36 206 58 344 68 102 7 112 -2 83 -67 -21 -47 -15 -70 19 -70
71 0 310 -134 387 -216 45 -49 110 -132 128 -164 110 -191 133 -407 65 -621
-26 -83 -28 -85 -72 -46 -13 13 -26 17 -31 11 -5 -5 -21 -52 -35 -105 -25 -92
-77 -232 -112 -302 -44 -87 -74 -88 -161 -7 -35 33 -70 60 -77 60 -8 0 -26
-20 -40 -44 -28 -47 -88 -102 -145 -131 -53 -27 -141 -55 -173 -55 l-28 0 20
37 c11 21 20 43 20 49 0 7 22 28 50 48 76 55 104 101 155 263 26 80 63 180 83
222 32 68 37 86 40 171 2 62 -2 123 -12 172 -9 43 -16 84 -16 92 0 8 18 33 40
56 54 56 70 98 70 181 0 107 -34 167 -125 220 -33 19 -54 24 -120 24 -69 0
-87 -4 -125 -27 -48 -28 -133 -119 -144 -155 -10 -31 8 -59 51 -80 110 -52
213 -261 213 -431 0 -56 -7 -80 -54 -186 -63 -140 -82 -194 -92 -256 -17 -113
-106 -168 -200 -124 -35 17 -64 49 -64 70 0 7 15 22 33 33 44 28 80 61 101 92
15 24 16 38 6 133 -6 59 -8 111 -5 116 3 4 19 11 35 15 34 7 77 54 87 93 3 15
17 40 30 56 15 18 23 39 21 55 -3 24 -7 26 -43 24 -97 -4 -237 -23 -262 -35
-39 -18 -39 -47 -5 -213 16 -77 28 -143 26 -147 -2 -3 -60 -6 -129 -6 -104 0
-125 2 -125 14 0 9 11 63 24 122 34 153 40 200 27 216 -10 12 -59 22 -224 45
-87 12 -121 0 -112 -38 4 -14 17 -37 30 -51 13 -14 27 -37 30 -52 9 -36 44
-69 87 -84 38 -13 39 -20 24 -170 l-8 -81 31 -35 c17 -20 54 -51 81 -68 28
-18 50 -35 50 -39 0 -4 -15 -22 -34 -40 -66 -64 -167 -49 -216 31 -11 18 -20
44 -20 58 0 49 -49 181 -108 295 -35 67 -37 74 -36 170 0 125 25 205 101 321
33 51 98 104 128 104 23 0 47 44 39 74 -7 30 -101 117 -167 156 -35 20 -55 24
-117 24 -64 0 -83 -4 -122 -27 -74 -43 -128 -137 -128 -221 0 -53 24 -108 68
-158 l45 -49 -16 -77 c-19 -89 -22 -209 -6 -266 6 -22 28 -76 49 -120 21 -45
52 -128 70 -186 57 -187 66 -203 141 -274 49 -46 69 -72 69 -89 0 -14 7 -30
15 -37 17 -15 20 -40 4 -40 -27 0 -136 33 -187 58 -54 25 -130 93 -178 158
l-21 28 -69 -60 c-38 -33 -77 -63 -86 -67 -54 -20 -136 142 -217 431 -13 47
-25 51 -57 21 -12 -12 -27 -18 -33 -15 -6 4 -23 46 -38 94 -23 75 -27 105 -27
217 -1 132 5 162 47 275 63 166 218 336 382 418 33 16 71 34 85 40 14 5 38 15
53 21 15 6 36 11 46 11 34 0 45 25 27 61 -17 34 -20 61 -9 72 10 11 80 8 193
-8z m-32 -357 c20 -17 14 -32 -29 -73 -22 -22 -49 -55 -60 -72 -26 -41 -54
-42 -74 -3 -31 60 -12 123 45 153 36 18 92 16 118 -5z m1018 6 c60 -29 81 -98
47 -155 -20 -34 -38 -37 -53 -9 -6 11 -33 46 -60 79 -28 33 -50 65 -50 71 0
12 35 28 63 29 11 1 34 -6 53 -15z m2466 -30 c52 -7 104 -45 95 -68 -4 -9 -19
-18 -34 -21 -15 -4 -46 -16 -68 -27 -164 -85 -219 -102 -334 -102 -75 -1 -91
3 -123 24 -21 14 -38 30 -38 36 0 6 30 16 68 23 102 19 186 52 251 99 50 37
101 47 183 36z m-5717 -239 c21 -20 25 -34 25 -85 0 -33 -4 -60 -10 -60 -5 0
-10 -13 -10 -30 0 -16 -4 -30 -10 -30 -5 0 -10 -9 -10 -20 0 -11 -4 -20 -10
-20 -5 0 -10 -9 -10 -20 0 -11 -4 -20 -10 -20 -5 0 -10 -7 -10 -16 0 -8 -18
-33 -40 -54 -22 -21 -40 -46 -40 -54 0 -9 -4 -16 -10 -16 -5 0 -10 -7 -10 -16
0 -9 -13 -29 -30 -44 -16 -15 -30 -35 -30 -44 0 -9 -4 -16 -10 -16 -5 0 -10
-8 -10 -18 0 -10 -9 -24 -20 -32 -11 -8 -20 -22 -20 -32 0 -11 -7 -18 -20 -18
-16 0 -20 -7 -20 -30 0 -16 -4 -30 -10 -30 -6 0 -10 -42 -10 -105 0 -63 4
-105 10 -105 6 0 10 -9 10 -20 0 -11 5 -20 10 -20 6 0 10 -8 10 -18 0 -10 9
-24 20 -32 11 -8 20 -22 20 -32 0 -10 5 -18 10 -18 6 0 10 -8 10 -18 0 -10 9
-24 20 -32 11 -8 20 -21 20 -29 0 -7 10 -22 21 -32 12 -11 19 -25 15 -34 -3
-8 -1 -15 5 -15 18 0 61 -51 55 -65 -3 -8 -1 -15 5 -15 18 0 41 -30 35 -45 -3
-8 -1 -15 5 -15 13 0 39 -25 39 -38 0 -5 14 -23 30 -40 17 -18 30 -38 30 -45
0 -7 9 -19 20 -27 11 -8 20 -19 20 -25 0 -6 9 -21 21 -34 11 -12 18 -29 15
-37 -3 -8 1 -14 9 -14 8 0 15 -6 15 -13 0 -7 9 -23 21 -36 11 -12 18 -29 15
-37 -3 -8 1 -14 10 -14 11 0 15 -6 11 -20 -3 -13 0 -20 9 -20 8 0 14 -9 14
-20 0 -11 5 -20 11 -20 7 0 10 -15 7 -40 -2 -28 0 -40 9 -40 10 0 13 -28 13
-115 0 -70 -4 -115 -10 -115 -5 0 -10 -11 -10 -25 0 -28 -118 -155 -145 -155
-8 0 -15 -4 -15 -10 0 -5 -9 -10 -20 -10 -11 0 -20 -4 -20 -10 0 -5 -22 -10
-50 -10 -27 0 -50 -4 -50 -10 0 -6 -32 -10 -75 -10 -43 0 -75 4 -75 10 0 6
-18 10 -40 10 -22 0 -40 5 -40 10 0 6 -9 10 -20 10 -11 0 -20 6 -20 14 0 9 -8
12 -24 9 -20 -4 -37 8 -90 61 -36 36 -66 72 -66 81 0 8 -5 15 -11 15 -6 0 -9
9 -6 20 3 13 0 20 -9 20 -8 0 -14 9 -14 20 0 11 -4 20 -10 20 -5 0 -10 9 -10
20 0 11 -4 20 -10 20 -5 0 -10 18 -10 40 0 22 -4 40 -10 40 -6 0 -10 27 -10
60 0 33 -4 60 -10 60 -6 0 -10 55 -10 145 0 90 4 145 10 145 6 0 10 33 10 80
0 47 4 80 10 80 6 0 10 23 10 50 0 28 5 50 10 50 6 0 10 14 10 30 0 17 5 30
10 30 6 0 10 9 10 20 0 11 5 20 10 20 6 0 10 17 10 38 0 26 6 42 20 52 15 11
20 26 20 60 0 34 5 49 20 60 14 10 20 26 20 50 0 24 6 40 20 50 17 12 20 26
20 95 0 69 -3 83 -20 95 -17 12 -20 26 -20 82 0 39 -4 68 -10 68 -5 0 -10 25
-10 55 0 30 5 55 10 55 6 0 10 27 10 60 0 33 4 60 10 60 6 0 10 9 10 20 0 11
5 20 10 20 6 0 10 13 10 28 0 16 8 34 20 42 11 8 20 20 20 28 0 18 46 62 65
62 8 0 15 9 15 20 0 13 7 20 20 20 11 0 20 5 20 10 0 6 9 10 20 10 11 0 20 5
20 10 0 6 9 10 20 10 11 0 20 5 20 10 0 6 30 10 70 10 62 0 74 -3 95 -25z
m889 -367 c122 -66 166 -155 166 -341 0 -156 8 -167 165 -246 121 -60 261
-107 498 -166 98 -25 206 -56 240 -70 183 -76 218 -89 292 -102 85 -15 130
-12 237 14 37 9 70 14 74 10 20 -20 -14 -62 -110 -139 -328 -261 -633 -321
-894 -175 -53 30 -64 32 -152 32 -106 0 -132 -10 -201 -72 -57 -51 -73 -39
-77 54 -2 52 2 81 17 116 28 64 21 77 -43 77 -41 0 -62 -7 -100 -31 -27 -16
-55 -28 -62 -25 -17 7 -19 107 -3 137 19 36 16 105 -6 129 -28 31 -82 51 -140
53 -41 1 -59 -5 -95 -29 -78 -51 -138 -74 -198 -74 -63 0 -113 19 -178 66 -38
27 -54 46 -54 62 0 16 6 22 20 22 30 0 80 28 80 44 0 8 14 28 30 46 17 18 30
41 30 52 0 12 -22 41 -48 67 -55 52 -72 86 -72 140 0 33 -4 40 -30 51 -16 7
-30 18 -30 25 0 17 52 60 93 79 72 32 123 39 179 25 29 -7 57 -16 63 -21 5 -4
15 -8 23 -8 8 0 26 -9 41 -19 14 -10 37 -21 51 -22 23 -4 25 0 30 41 7 52 18
76 54 109 26 25 35 65 16 76 -5 3 -10 13 -10 21 0 22 56 17 104 -8z m1857
-583 c28 -19 68 -39 90 -45 72 -20 44 -68 -53 -94 -31 -8 -65 -19 -76 -25 -24
-13 -174 36 -205 67 -25 26 -16 39 36 53 23 6 65 26 92 45 28 18 53 34 58 34
4 0 30 -16 58 -35z m2853 -367 c9 -12 16 -33 16 -46 0 -38 40 -144 78 -207 20
-33 65 -88 100 -123 82 -83 82 -100 -7 -153 -84 -51 -147 -68 -278 -75 -59 -4
-122 -13 -139 -21 -56 -25 -70 -93 -33 -164 16 -32 18 -44 8 -55 -13 -16 -99
-19 -127 -5 -63 32 -71 34 -87 21 -29 -24 -12 -82 39 -129 50 -47 25 -81 -60
-81 -36 0 -68 11 -145 50 -54 28 -109 50 -123 50 -24 0 -86 -51 -86 -72 0 -5
10 -24 23 -41 40 -58 23 -158 -41 -229 -21 -25 -31 -23 -66 17 l-31 34 -44
-15 c-77 -27 -163 -3 -237 68 l-41 39 -78 -41 c-110 -55 -150 -55 -206 2 -38
39 -42 41 -70 31 -25 -10 -31 -9 -39 7 -13 25 2 99 30 145 37 59 139 125 196
125 13 0 34 5 47 11 l25 11 -31 50 c-24 39 -31 61 -32 105 0 50 -4 57 -35 83
l-34 28 35 18 c25 14 56 19 115 19 100 0 146 -21 246 -114 l69 -64 67 6 c165
14 362 151 362 252 0 19 -29 34 -104 54 -40 11 -61 21 -61 31 0 20 263 229
353 281 117 67 271 116 369 118 32 1 45 -4 57 -21z"/>
<path d="M1903 16273 c9 -2 23 -2 30 0 6 3 -1 5 -18 5 -16 0 -22 -2 -12 -5z"/>
<path d="M1963 16273 c9 -2 23 -2 30 0 6 3 -1 5 -18 5 -16 0 -22 -2 -12 -5z"/>
<path d="M1830 16256 c0 -8 51 -13 56 -5 3 5 -9 9 -25 9 -17 0 -31 -2 -31 -4z"/>
<path d="M2005 16250 c3 -5 8 -10 11 -10 2 0 4 5 4 10 0 6 -5 10 -11 10 -5 0
-7 -4 -4 -10z"/>
<path d="M1762 16184 c-30 -31 -52 -57 -50 -59 2 -3 31 22 63 55 33 33 55 60
50 59 -6 0 -34 -25 -63 -55z"/>
<path d="M2033 16175 c0 -38 2 -53 4 -32 2 20 2 52 0 70 -2 17 -4 1 -4 -38z"/>
<path d="M1690 16089 c0 -16 4 -28 9 -25 8 5 3 56 -5 56 -2 0 -4 -14 -4 -31z"/>
<path d="M2007 16103 c-3 -5 -1 -17 4 -28 7 -17 8 -17 8 8 1 27 -4 34 -12 20z"/>
<path d="M1670 16039 c0 -11 4 -18 10 -14 5 3 7 12 3 20 -7 21 -13 19 -13 -6z"/>
<path d="M1967 16022 c-19 -20 -24 -31 -17 -42 8 -13 10 -12 10 4 0 10 10 27
22 37 11 11 19 21 16 24 -2 3 -16 -8 -31 -23z"/>
<path d="M1653 15945 c0 -44 2 -61 4 -37 2 23 2 59 0 80 -2 20 -4 1 -4 -43z"/>
<path d="M1925 15961 c-3 -5 -1 -12 5 -16 5 -3 10 1 10 9 0 18 -6 21 -15 7z"/>
<path d="M1877 15892 c-27 -28 -34 -41 -27 -52 8 -13 10 -12 10 3 0 11 14 32
31 48 18 16 30 32 27 34 -2 3 -21 -12 -41 -33z"/>
<path d="M1670 15851 c0 -25 6 -27 13 -6 4 8 2 17 -3 20 -6 4 -10 -3 -10 -14z"/>
<path d="M1690 15811 c0 -25 6 -27 13 -6 4 8 2 17 -3 20 -6 4 -10 -3 -10 -14z"/>
<path d="M1805 15820 c-4 -6 3 -10 14 -10 25 0 27 6 6 13 -8 4 -17 2 -20 -3z"/>
<path d="M1750 15805 c-7 -9 -8 -15 -2 -15 5 0 12 7 16 15 3 8 4 15 2 15 -2 0
-9 -7 -16 -15z"/>
<path d="M1778 15793 c7 -3 16 -2 19 1 4 3 -2 6 -13 5 -11 0 -14 -3 -6 -6z"/>
<path d="M1718 15773 c7 -3 16 -2 19 1 4 3 -2 6 -13 5 -11 0 -14 -3 -6 -6z"/>
<path d="M1678 15293 c7 -3 16 -2 19 1 4 3 -2 6 -13 5 -11 0 -14 -3 -6 -6z"/>
<path d="M1650 15271 c0 -5 -10 -11 -22 -13 -19 -3 -20 -4 -6 -10 10 -4 23 1
34 13 10 11 12 19 6 19 -7 0 -12 -4 -12 -9z"/>
<path d="M1705 15270 c3 -5 12 -7 20 -3 21 7 19 13 -6 13 -11 0 -18 -4 -14
-10z"/>
<path d="M1740 15257 c0 -1 35 -36 77 -77 83 -80 73 -61 -14 27 -46 47 -63 60
-63 50z"/>
<path d="M1590 15223 c0 -12 -6 -23 -12 -26 -7 -2 -10 -7 -7 -11 12 -12 38 29
29 44 -8 12 -10 11 -10 -7z"/>
<path d="M1550 15139 c0 -11 4 -18 10 -14 5 3 7 12 3 20 -7 21 -13 19 -13 -6z"/>
<path d="M1530 15094 c0 -8 5 -12 10 -9 6 4 8 11 5 16 -9 14 -15 11 -15 -7z"/>
<path d="M1510 15039 c0 -11 4 -18 10 -14 5 3 7 12 3 20 -7 21 -13 19 -13 -6z"/>
<path d="M1920 15056 c0 -2 7 -9 15 -16 13 -11 14 -10 9 4 -5 14 -24 23 -24
12z"/>
<path d="M1490 14949 c0 -5 5 -7 10 -4 6 3 10 8 10 11 0 2 -4 4 -10 4 -5 0
-10 -5 -10 -11z"/>
<path d="M1586 14145 c4 -8 11 -15 16 -15 6 0 5 6 -2 15 -7 8 -14 15 -16 15
-2 0 -1 -7 2 -15z"/>
<path d="M2265 14140 c-3 -5 -1 -10 4 -10 6 0 11 5 11 10 0 6 -2 10 -4 10 -3
0 -8 -4 -11 -10z"/>
<path d="M1650 14080 c0 -5 5 -10 11 -10 5 0 7 5 4 10 -3 6 -8 10 -11 10 -2 0
-4 -4 -4 -10z"/>
<path d="M5135 13089 c-387 -8 -419 -10 -432 -22 -9 -10 -9 30 -11 -954 l-2
-883 -1765 0 -1765 0 0 -28 c0 -42 76 -392 111 -507 5 -16 18 -64 30 -105 25
-85 96 -305 108 -335 5 -11 14 -36 21 -55 7 -19 16 -45 21 -57 9 -24 23 -57
38 -95 5 -13 18 -44 30 -70 12 -26 21 -51 21 -54 0 -13 150 -322 206 -424 20
-36 48 -87 63 -115 27 -48 51 -88 159 -262 39 -63 185 -274 209 -302 2 -3 27
18 56 47 28 28 79 64 112 79 l60 28 1144 0 1144 0 -1 -952 c-1 -728 2 -954 11
-961 11 -10 92 -31 202 -54 28 -5 66 -14 85 -18 19 -5 53 -12 75 -15 22 -3 67
-10 100 -16 122 -21 256 -31 640 -49 56 -3 329 10 430 21 177 18 401 53 505
79 19 5 60 14 90 21 30 6 67 16 83 21 l27 10 0 959 0 959 1123 0 c747 0 1135
-4 1162 -11 66 -17 127 -51 177 -100 26 -25 51 -43 56 -40 19 14 252 352 252
366 0 4 14 26 30 50 17 24 30 47 30 50 0 4 8 19 18 33 41 59 223 409 266 512
10 25 28 65 39 90 40 92 46 107 72 175 15 39 30 79 35 90 4 11 13 36 20 55 7
19 16 44 20 55 5 11 19 52 31 90 12 39 25 79 29 90 5 11 11 31 15 45 3 14 11
40 16 58 38 134 75 276 94 368 40 183 52 250 47 261 -3 10 -369 13 -1766 15
l-1761 3 -3 918 c-1 504 -5 917 -10 918 -4 0 -16 2 -27 5 -40 8 -700 22 -1040
22 -192 -1 -521 -5 -730 -9z m721 -419 c14 -41 29 -84 34 -95 4 -11 22 -63 40
-115 50 -150 62 -180 72 -180 6 0 102 45 214 100 211 103 241 114 236 92 -1
-8 -50 -111 -107 -230 -78 -160 -102 -218 -93 -223 7 -5 36 -16 63 -25 80 -25
337 -114 368 -126 51 -20 51 -20 -253 -125 -113 -39 -190 -70 -190 -76 0 -2
49 -103 109 -223 60 -120 106 -222 102 -226 -4 -5 -38 8 -76 26 -175 87 -367
176 -379 176 -7 0 -25 -35 -39 -77 -98 -295 -131 -383 -141 -380 -6 2 -19 26
-28 53 -36 99 -90 251 -115 324 -14 41 -29 79 -33 83 -6 7 -167 -68 -372 -173
-43 -22 -80 -40 -83 -40 -11 0 -2 25 64 161 114 239 141 298 141 306 0 5 -24
16 -52 25 -29 9 -135 45 -235 79 -192 65 -205 76 -129 98 17 5 83 28 146 51
63 22 150 53 193 68 42 14 77 32 77 39 0 6 -47 106 -105 222 -99 198 -113 231
-99 231 9 0 382 -175 426 -200 10 -6 22 -10 27 -10 5 0 28 57 51 128 23 70 45
136 50 147 5 11 14 38 21 60 28 93 48 137 60 133 6 -2 22 -37 35 -78z m-2962
-1800 c89 -265 113 -331 122 -340 5 -5 50 11 114 42 58 28 158 77 223 109 80
39 120 53 123 45 4 -11 -33 -91 -168 -364 -23 -45 -39 -84 -36 -87 5 -6 176
-67 308 -111 41 -14 84 -29 95 -34 11 -5 29 -10 40 -12 11 -2 21 -10 23 -19 2
-12 -48 -33 -233 -94 -129 -43 -235 -80 -235 -81 0 -4 89 -193 165 -349 37
-77 49 -111 40 -113 -7 -2 -110 45 -229 104 -125 61 -220 103 -225 98 -8 -8
-64 -163 -140 -386 -26 -79 -44 -97 -54 -55 -12 49 -146 430 -154 438 -5 5
-50 -11 -103 -37 -320 -156 -375 -179 -365 -153 3 8 52 109 110 224 80 161
101 213 92 222 -7 6 -46 23 -87 37 -172 58 -286 98 -305 106 -11 5 -29 10 -40
12 -23 4 -33 36 -13 42 38 10 95 28 113 36 11 5 91 32 178 61 98 32 157 57
157 65 0 12 -75 174 -175 379 -19 38 -31 73 -27 76 4 4 107 -42 230 -103 123
-61 226 -108 228 -105 5 5 54 140 94 257 22 67 69 191 77 203 10 16 21 -6 57
-113z m5910 93 c7 -16 21 -48 29 -73 9 -25 35 -97 57 -160 23 -63 49 -136 57
-162 9 -27 20 -48 25 -48 6 0 44 18 86 40 158 81 344 170 358 170 19 0 18 -2
-167 -385 -16 -33 -29 -65 -29 -71 0 -6 102 -45 228 -86 267 -89 273 -95 145
-137 -45 -15 -85 -30 -89 -34 -4 -4 -16 -7 -26 -7 -10 0 -26 -4 -36 -10 -9 -5
-60 -24 -112 -41 -52 -18 -100 -36 -107 -41 -8 -6 13 -58 73 -181 47 -95 96
-194 109 -222 37 -76 51 -80 -254 67 -102 49 -188 85 -192 81 -4 -5 -38 -98
-75 -208 -36 -110 -73 -213 -81 -228 -15 -31 -28 -29 -36 5 -3 13 -15 50 -27
83 -42 111 -102 280 -111 313 -6 18 -16 35 -22 37 -7 3 -110 -44 -230 -104
-120 -59 -220 -104 -223 -99 -3 5 5 32 19 61 132 273 175 366 181 383 6 19 -8
25 -156 74 -90 30 -167 57 -172 62 -6 4 -18 8 -28 8 -10 0 -26 4 -36 9 -9 6
-29 12 -44 16 -44 9 -33 31 25 49 28 9 61 21 72 26 11 5 54 20 95 34 41 14
113 39 159 55 46 17 86 31 88 31 10 0 -7 39 -103 234 -58 119 -102 220 -99
225 3 6 22 1 43 -9 128 -66 416 -200 420 -195 3 2 31 80 62 172 31 93 65 191
74 218 9 28 19 56 21 63 6 18 13 15 29 -15z m-3292 -51 c77 -38 138 -100 177
-182 l26 -55 3 -652 c2 -459 -1 -653 -8 -653 -6 0 -21 9 -33 21 -12 11 -51 35
-87 52 l-65 32 -582 3 -583 3 0 734 c0 676 1 734 17 737 9 2 253 1 542 -2
l526 -5 67 -33z m1758 -698 l0 -733 -582 -3 -583 -3 -56 -26 c-30 -14 -71 -40
-91 -57 -19 -18 -38 -29 -42 -25 -3 3 -6 289 -6 635 0 611 1 630 21 691 33 99
99 174 197 223 l57 29 525 5 c289 3 533 3 543 1 16 -3 17 -46 17 -737z m-3012
587 c6 -103 7 -102 -111 -99 l-102 3 -3 64 c-4 95 -8 92 110 89 l103 -3 3 -54z
m3327 -21 l0 -75 -99 -3 c-73 -2 -102 1 -108 10 -10 16 -11 132 -1 142 4 4 52
5 107 4 l101 -3 0 -75z m-3331 -346 c12 -31 6 -121 -8 -133 -9 -8 -47 -11
-107 -9 l-94 3 -3 64 c-2 35 -1 70 2 77 8 22 202 20 210 -2z m3331 -64 l0 -75
-94 -3 c-60 -2 -98 1 -107 9 -9 7 -14 31 -14 64 0 87 -2 86 114 83 l101 -3 0
-75z m-3330 -405 l0 -70 -107 -3 -108 -3 0 76 0 76 108 -3 107 -3 0 -70z
m3335 0 l0 -76 -107 3 -108 3 -3 59 c-2 32 -1 65 2 72 4 11 31 14 111 14 l105
0 0 -75z m-3341 -339 c7 -9 11 -40 9 -78 l-3 -63 -105 0 -105 0 -3 64 c-2 35
-1 70 2 77 8 20 189 20 205 0z m3336 -66 l0 -75 -105 0 -105 0 -3 63 c-4 90 1
93 117 90 l96 -3 0 -75z m-1747 -476 c2 -10 7 -28 12 -39 13 -29 140 -393 140
-401 0 -12 42 6 241 105 121 59 222 105 225 100 2 -4 -31 -81 -75 -171 -43
-90 -93 -192 -110 -227 -17 -36 -30 -65 -28 -67 2 -2 247 -88 327 -114 95 -31
141 -52 137 -63 -1 -5 -28 -18 -57 -28 -30 -9 -107 -36 -170 -59 -63 -23 -137
-48 -165 -57 -27 -9 -56 -21 -62 -27 -10 -9 12 -61 97 -231 60 -121 105 -224
101 -228 -4 -4 -25 1 -47 12 -146 73 -397 191 -407 191 -8 0 -34 -66 -67 -167
-29 -93 -57 -172 -62 -177 -4 -6 -8 -19 -8 -31 0 -12 -4 -25 -9 -31 -5 -5 -11
-20 -13 -34 -1 -14 -10 -25 -18 -25 -14 0 -24 22 -75 170 -13 39 -42 122 -64
185 -22 63 -43 115 -48 115 -4 0 -87 -39 -183 -86 -246 -122 -262 -129 -270
-124 -5 3 7 35 25 72 84 169 185 384 185 390 0 5 -37 20 -83 35 -300 98 -388
132 -374 145 12 13 135 59 349 132 59 20 108 41 108 48 0 6 -47 106 -105 221
-58 116 -105 215 -105 222 0 7 8 9 23 4 19 -6 223 -102 381 -180 28 -13 53
-24 57 -24 3 0 30 71 58 158 29 86 57 166 61 177 5 11 16 42 25 69 9 27 18 53
21 58 9 14 29 3 32 -18z"/>
<path d="M4575 10627 c-4 -13 -5 -43 -3 -68 l3 -44 458 -3 458 -2 -3 67 -3 68
-452 3 -453 2 -5 -23z"/>
<path d="M4575 10247 c-4 -13 -5 -43 -3 -68 l3 -44 458 -3 457 -2 0 70 0 70
-455 0 -455 0 -5 -23z"/>
<path d="M4579 9878 c-1 -13 -1 -106 0 -121 1 -4 205 -6 454 -5 l452 3 0 65 0
65 -452 3 c-359 2 -453 0 -454 -10z"/>
<path d="M6150 10580 l0 -70 453 2 452 3 0 65 0 65 -452 3 -453 2 0 -70z"/>
<path d="M6150 10200 l0 -70 453 2 452 3 0 65 0 65 -452 3 -453 2 0 -70z"/>
<path d="M6150 9820 l0 -70 453 2 452 3 0 65 0 65 -452 3 -453 2 0 -70z"/>
<path d="M144 16239 c-7 -12 9 -16 41 -9 l30 6 -33 5 c-18 3 -35 2 -38 -2z"/>
<path d="M410 15882 c-3 -30 -2 -56 2 -58 12 -7 14 9 8 61 l-6 50 -4 -53z"/>
<path d="M408 14043 c-2 -5 -1 -26 2 -48 l6 -40 5 43 c4 39 -4 65 -13 45z"/>
<path d="M307 13782 c-3 -4 -1 -16 4 -27 6 -16 8 -16 8 -3 1 9 6 18 13 20 8 3
6 7 -5 11 -9 3 -18 3 -20 -1z"/>
<path d="M160 13635 c-13 -14 -20 -25 -15 -25 7 0 45 39 45 47 0 7 -8 2 -30
-22z"/>
<path d="M13915 15568 c-3 -8 -4 -95 -3 -193 l3 -180 65 0 65 0 5 90 5 90 225
0 225 0 3 -654 c2 -493 -1 -657 -10 -668 -9 -11 -35 -14 -117 -11 l-106 3 0
-50 0 -50 63 0 c34 1 188 2 342 3 l280 2 0 45 0 45 -109 0 c-79 0 -112 4 -120
14 -8 9 -10 192 -9 667 l3 654 225 0 225 0 5 -90 5 -90 60 0 60 0 0 190 0 190
-60 0 c-58 0 -60 -1 -63 -28 l-3 -27 -567 2 -567 3 0 25 c0 24 -3 25 -63 28
-45 2 -64 -1 -67 -10z"/>
<path d="M18224 15567 c-3 -8 -4 -20 -2 -28 3 -12 -71 -15 -462 -19 l-465 -5
-3 -52 -3 -53 86 0 85 0 -2 -682 -3 -683 -82 -3 -83 -3 0 -44 0 -44 528 -3
c290 -2 533 -1 540 1 10 2 12 40 10 160 l-3 156 -57 3 -58 3 0 -94 c0 -59 -4
-97 -12 -105 -9 -9 -86 -12 -285 -12 l-273 0 0 310 0 310 215 0 214 0 3 -87 3
-88 60 0 60 0 0 235 0 235 -60 0 -60 0 -3 -87 -3 -88 -214 0 -215 0 0 295 0
295 276 0 275 0 -1 -87 c-1 -49 -1 -94 -1 -100 1 -9 19 -13 55 -13 34 0 55 5
58 13 2 6 4 93 4 192 l-1 180 -58 3 c-42 2 -59 -1 -63 -11z"/>
<path d="M25787 15573 c-4 -3 -7 -17 -7 -30 l0 -23 -467 -2 -468 -3 0 -50 0
-50 83 -3 82 -3 0 -684 0 -685 -85 0 -85 0 0 -45 0 -45 540 0 541 0 -3 158 -3
157 -50 0 -50 0 -5 -100 -5 -100 -282 -3 -283 -2 0 310 0 310 215 0 214 0 3
-87 3 -88 55 0 55 0 0 235 0 235 -55 0 -55 0 -3 -87 -3 -88 -214 0 -215 0 0
295 0 295 270 0 269 0 3 -97 3 -98 55 0 55 0 3 193 2 192 -53 0 c-30 0 -57 -3
-60 -7z"/>
<path d="M29565 15568 c-3 -8 -4 -95 -3 -193 l3 -180 60 0 60 0 5 90 5 90 225
0 225 0 3 -654 c1 -475 -1 -658 -9 -667 -8 -10 -41 -14 -120 -14 l-109 0 0
-45 0 -44 335 -3 c184 -2 340 -1 345 0 15 5 13 92 -2 93 -7 0 -56 0 -109 -1
-71 -1 -99 3 -107 13 -9 11 -11 179 -10 668 l3 654 225 0 225 0 5 -90 5 -90
60 0 60 0 0 190 0 190 -60 0 c-58 0 -60 -1 -63 -27 l-3 -28 -564 0 -564 0 -3
28 c-3 26 -6 27 -61 30 -41 2 -59 -1 -62 -10z"/>
<path d="M35677 15573 c-4 -3 -7 -17 -7 -30 l0 -23 -459 0 c-509 0 -485 3
-479 -67 l3 -38 89 -5 89 -5 2 -515 c1 -283 0 -590 -2 -682 l-4 -167 -87 -3
-87 -3 0 -40 0 -40 288 -3 287 -2 0 45 0 45 -83 0 -84 0 -6 312 c-4 172 -3
316 1 320 5 5 103 7 218 6 l209 -3 5 -85 5 -85 55 0 55 0 0 235 0 235 -55 0
-55 0 -3 -87 -3 -88 -221 0 -221 0 6 293 6 292 270 3 270 2 3 -97 3 -98 58 -3
57 -3 0 196 0 195 -58 0 c-32 0 -62 -3 -65 -7z"/>
<path d="M28430 15525 c0 -34 -1 -35 -27 -29 -16 4 -32 10 -38 14 -43 30 -277
38 -366 13 -121 -34 -237 -133 -286 -240 -22 -50 -26 -72 -26 -158 0 -85 4
-108 25 -155 49 -108 158 -201 363 -310 234 -125 316 -200 345 -317 12 -46 12
-59 -4 -108 -22 -71 -53 -106 -123 -141 -48 -23 -74 -29 -152 -32 -117 -6
-139 1 -283 81 l-37 20 -3 96 -3 96 -60 0 -60 0 -3 -213 -2 -213 62 3 63 3 3
37 3 36 52 -26 c171 -88 364 -94 524 -16 102 49 196 160 232 273 19 59 14 203
-10 266 -37 100 -163 212 -364 325 -199 112 -322 214 -343 286 -17 57 -15 85
9 149 60 160 274 195 462 75 l47 -30 0 -80 0 -81 58 3 57 3 0 200 0 200 -57 3
-58 3 0 -36z"/>
<path d="M33690 15528 c-88 -26 -157 -52 -182 -69 -14 -11 -29 -19 -33 -19
-14 0 -94 -61 -142 -108 -93 -91 -182 -231 -212 -332 -7 -25 -17 -56 -21 -70
-21 -66 -31 -210 -21 -287 13 -85 28 -155 42 -190 34 -84 29 -74 73 -156 61
-114 201 -243 331 -306 188 -89 325 -102 520 -48 146 40 318 169 408 305 108
164 147 292 147 482 0 60 -5 133 -11 162 -64 313 -287 555 -587 634 -61 16
-259 17 -312 2z m216 -129 c210 -39 355 -188 423 -439 17 -61 21 -103 21 -230
-1 -146 -7 -196 -38 -296 -36 -116 -125 -241 -217 -303 -78 -53 -150 -75 -250
-75 -112 0 -162 16 -265 85 -106 71 -183 192 -225 354 -31 119 -39 222 -26
323 28 213 77 329 186 438 73 73 176 133 232 135 15 1 39 5 53 9 35 11 40 11
106 -1z"/>
<path d="M15441 15506 c-7 -8 -11 -32 -9 -53 l3 -38 88 -3 87 -3 0 -684 0
-684 -87 -3 -88 -3 0 -40 0 -40 288 -3 287 -2 0 45 0 45 -85 0 -84 0 -3 311
c-2 171 0 315 3 320 3 5 181 8 430 7 l424 -3 0 -315 0 -315 -82 -3 -83 -3 0
-44 0 -45 286 0 285 0 -3 43 -3 42 -87 3 -88 3 0 684 0 684 88 3 87 3 0 50 0
50 -280 0 -280 0 -3 -52 -3 -53 85 0 86 0 0 -305 0 -305 -428 0 c-236 0 -431
2 -433 4 -2 2 -3 140 -1 305 l3 300 82 3 82 3 0 50 0 50 -276 3 c-231 2 -278
0 -288 -12z"/>
<path d="M19120 15500 c-6 -11 -9 -32 -6 -47 2 -16 5 -31 5 -35 1 -5 41 -8 91
-8 l89 0 3 -542 c2 -435 6 -549 17 -573 7 -16 18 -41 24 -55 24 -53 88 -139
136 -182 126 -113 357 -173 533 -137 225 45 366 141 447 303 57 115 61 160 61
698 l0 487 88 3 87 3 0 50 0 50 -242 3 -243 2 -6 -24 c-3 -13 -4 -37 -2 -52
l3 -29 93 -3 92 -3 0 -442 c0 -504 -5 -557 -63 -676 -59 -120 -162 -191 -322
-221 -168 -32 -355 61 -430 213 -52 107 -54 134 -55 649 l0 477 88 3 87 3 0
50 0 50 -282 3 c-274 2 -282 2 -293 -18z"/>
<path d="M20814 15506 c-3 -8 -4 -31 -2 -52 l3 -39 82 -5 c80 -5 82 -5 112
-44 l31 -39 -2 -641 -3 -641 -87 -3 -88 -3 0 -44 0 -45 245 0 245 0 0 45 0 44
-87 3 -88 3 -3 543 c-1 298 1 542 5 542 5 -1 31 -33 58 -71 28 -39 91 -126
140 -194 50 -67 128 -175 175 -240 47 -64 112 -154 145 -200 33 -45 98 -135
145 -200 230 -318 220 -306 265 -303 l40 3 3 743 2 742 86 0 85 0 -3 53 -3 52
-240 0 -240 0 0 -50 0 -50 88 -3 87 -3 1 -277 c1 -152 3 -386 5 -519 1 -134
-1 -245 -5 -247 -4 -3 -41 41 -81 97 -41 56 -104 143 -140 192 -37 50 -88 119
-113 155 -26 36 -82 113 -125 171 -42 58 -115 159 -162 224 -47 65 -118 162
-158 216 l-74 99 -169 0 c-136 0 -171 -3 -175 -14z"/>
<path d="M22484 15506 c-3 -8 -4 -31 -2 -52 l3 -39 88 -3 87 -3 -2 -682 -3
-682 -87 -3 -88 -3 0 -45 0 -44 288 2 287 3 0 40 0 40 -87 3 -88 3 0 684 0
684 88 3 87 3 3 38 c6 68 11 67 -295 67 -225 0 -275 -2 -279 -14z"/>
<path d="M23184 15506 c-3 -8 -4 -31 -2 -52 l3 -39 69 -5 68 -5 135 -340 c74
-187 139 -348 144 -357 5 -10 9 -22 9 -28 0 -6 9 -29 19 -53 10 -23 47 -114
81 -202 34 -88 66 -169 70 -180 4 -11 36 -91 70 -177 34 -86 66 -158 71 -160
26 -9 91 5 96 21 5 18 15 43 32 84 6 15 15 37 20 50 4 12 13 33 19 47 5 14 24
63 42 110 18 47 36 95 41 108 5 12 13 32 18 45 5 12 37 94 71 182 34 88 66
170 71 183 5 12 13 32 18 45 5 12 37 94 71 182 34 88 71 179 81 202 10 24 19
47 19 53 0 6 4 18 9 28 11 21 25 56 42 102 19 54 26 59 87 62 l57 3 0 50 0 50
-210 0 -210 0 0 -50 0 -50 77 -3 c70 -3 77 -5 69 -20 -5 -9 -33 -78 -61 -152
-29 -74 -56 -144 -60 -155 -4 -11 -35 -90 -68 -175 -33 -85 -96 -247 -141
-360 -44 -113 -85 -218 -92 -235 -11 -32 -26 4 -381 902 l-76 192 107 3 106 3
0 50 0 50 -293 3 c-244 2 -293 0 -298 -12z"/>
<path d="M26141 15506 c-7 -8 -11 -32 -9 -53 l3 -38 86 -3 86 -3 6 -232 c9
-295 9 -576 0 -889 l-6 -247 -86 -3 -86 -3 0 -40 0 -40 290 0 290 0 0 40 0 40
-86 3 -87 3 -7 232 c-4 128 -5 261 -3 297 l3 65 89 0 90 0 143 -230 c215 -344
269 -422 303 -440 24 -13 61 -15 192 -13 163 3 163 3 166 27 2 12 1 33 -2 46
-5 21 -13 23 -81 27 -69 3 -77 6 -110 38 -20 19 -89 116 -152 215 -64 99 -143
219 -175 267 -32 48 -58 91 -58 97 0 5 17 12 38 16 82 15 190 87 240 160 79
118 82 330 5 479 -51 99 -156 160 -312 182 -141 20 -754 20 -770 0z m735 -137
c119 -45 178 -148 172 -299 -5 -138 -59 -227 -168 -279 -50 -23 -69 -26 -197
-29 l-142 -4 -7 27 c-5 19 0 566 6 603 0 1 63 2 140 2 117 0 148 -3 196 -21z"/>
<path d="M28857 15513 c-4 -3 -7 -28 -7 -55 l0 -48 90 0 90 0 -2 -682 -3 -683
-87 -3 -88 -3 0 -44 0 -45 285 0 285 0 0 45 0 45 -78 0 c-47 0 -83 5 -90 12
-9 9 -12 175 -12 685 l0 672 88 3 87 3 0 50 0 50 -276 3 c-151 1 -278 -1 -282
-5z"/>
<path d="M31077 15513 c-4 -3 -7 -28 -7 -55 l0 -48 68 0 67 0 116 -178 c64
-97 165 -251 224 -342 60 -91 116 -180 127 -198 16 -30 18 -60 18 -342 l0
-309 -87 -3 -88 -3 -3 -34 c-2 -18 0 -37 5 -42 6 -6 486 -14 561 -10 8 1 12
17 12 46 0 50 7 47 -102 45 -63 -1 -68 0 -73 22 -3 13 -5 160 -3 328 l3 305
43 62 c23 34 42 65 42 68 0 3 18 33 40 65 22 32 40 61 40 65 0 3 20 36 43 73
97 149 117 182 117 187 0 3 20 36 44 73 23 37 50 79 59 94 15 24 24 27 79 30
61 3 63 4 66 32 2 15 1 39 -2 52 l-6 24 -238 -2 -237 -3 0 -50 0 -50 98 -3
c96 -3 111 -8 82 -32 -8 -7 -15 -16 -15 -20 0 -5 -23 -46 -51 -92 -29 -46 -60
-98 -71 -116 -10 -18 -26 -45 -35 -59 -9 -13 -24 -37 -32 -52 -9 -16 -42 -72
-75 -125 -47 -78 -61 -94 -72 -85 -8 6 -14 15 -14 20 0 5 -81 131 -180 279
-99 149 -180 273 -180 275 0 3 45 5 101 5 l100 0 -3 53 -3 52 -286 3 c-157 1
-288 -1 -292 -5z"/>
<path d="M31335 13248 c-3 -7 -6 -47 -7 -88 l-3 -75 -1235 -5 -1235 -5 0 -115
0 -115 230 -5 230 -5 0 -1810 0 -1810 -230 0 -230 0 0 -120 0 -120 1413 -3
1412 -2 1 390 c1 214 2 397 2 405 0 47 5 45 -148 45 l-145 0 -2 -272 -3 -273
-755 0 -755 0 -3 819 c-1 451 1 823 5 826 5 4 268 5 586 2 l578 -5 -7 -226
c-6 -203 -5 -228 10 -240 13 -11 42 -12 154 -5 l137 9 0 615 0 615 -139 3
c-100 2 -142 -1 -153 -10 -14 -11 -15 -41 -8 -220 4 -114 4 -216 0 -227 -6
-21 -9 -21 -586 -21 l-579 0 2 793 3 792 727 3 728 2 2 -267 3 -268 140 0 140
0 0 500 0 500 -138 3 c-104 2 -139 0 -142 -10z"/>
<path d="M15870 13102 c0 -54 -3 -101 -6 -105 -4 -3 -36 9 -73 27 -207 104
-481 148 -780 125 -205 -16 -341 -53 -515 -140 -231 -116 -410 -300 -510 -529
-29 -65 -35 -83 -62 -200 -20 -87 -20 -331 0 -426 83 -389 345 -646 1027
-1009 360 -192 535 -309 684 -459 167 -167 226 -295 228 -486 0 -58 -5 -130
-12 -160 -29 -118 -113 -250 -204 -317 -168 -126 -358 -183 -607 -183 -192 0
-300 25 -475 110 -99 48 -323 184 -337 204 -4 6 -8 118 -8 248 l0 237 -134 3
c-73 2 -141 2 -150 0 -15 -3 -16 -51 -14 -565 l3 -562 145 0 145 0 5 120 c3
66 8 120 11 120 3 0 48 -23 100 -52 283 -156 512 -215 832 -212 250 2 423 42
627 144 260 131 430 320 561 620 46 106 74 333 60 492 -24 269 -103 437 -296
628 -169 168 -317 270 -835 575 -457 269 -672 441 -764 610 -67 123 -74 325
-16 489 97 274 403 433 756 392 58 -6 135 -21 172 -33 106 -32 301 -135 410
-216 l32 -24 0 -219 0 -219 145 0 145 0 0 535 0 535 -145 0 -145 0 0 -98z"/>
<path d="M16517 13073 c-2 -5 -1 -57 2 -118 l6 -110 178 -5 179 -5 88 -135
c49 -74 128 -196 176 -270 48 -74 125 -193 171 -265 47 -71 135 -208 196 -302
247 -380 388 -598 515 -792 l134 -205 -2 -820 c0 -450 -3 -823 -6 -828 -3 -5
-103 -5 -222 -2 -189 6 -219 5 -230 -8 -9 -11 -12 -47 -10 -124 l3 -109 739
-3 c407 -1 742 1 746 5 3 5 3 60 0 123 l-5 115 -230 0 -230 0 -3 843 -2 842
82 133 c44 72 116 188 159 257 180 291 393 637 410 667 10 18 29 49 42 70 46
74 105 170 177 288 40 66 90 147 110 180 21 33 77 124 124 202 l88 143 161 2
162 3 3 118 3 117 -631 0 -631 0 3 -117 3 -118 273 -3 c182 -1 272 -6 272 -13
0 -6 -21 -45 -47 -87 -196 -323 -425 -702 -646 -1069 -143 -238 -265 -433
-271 -433 -13 0 9 -32 -298 440 -245 376 -580 888 -690 1053 -32 49 -58 93
-58 98 0 5 117 10 273 11 l272 3 3 118 3 117 -770 0 c-423 0 -771 -3 -774 -7z"/>
<path d="M20532 12963 l3 -118 228 -3 227 -2 0 -1816 0 -1815 -227 3 -228 3
-5 -113 c-3 -62 -3 -117 -2 -122 5 -14 1942 -14 2047 1 271 36 480 98 696 206
401 201 715 517 909 918 153 316 217 619 207 980 -10 337 -73 589 -219 877
-312 614 -903 1028 -1583 1107 -57 7 -450 11 -1073 11 l-983 0 3 -117z m2033
-236 c247 -59 466 -177 650 -350 358 -335 557 -827 556 -1372 0 -77 -2 -156
-5 -175 -3 -19 -10 -73 -16 -120 -63 -487 -323 -929 -695 -1179 -168 -114
-324 -177 -545 -222 -67 -13 -938 -25 -951 -12 -4 4 -9 783 -11 1730 -3 1474
-1 1723 11 1725 8 2 222 0 475 -3 381 -5 473 -8 531 -22z"/>
<path d="M24482 12963 l3 -118 217 -5 c119 -3 218 -7 220 -10 3 -3 39 -54 81
-114 l77 -108 0 -1694 c0 -1348 -3 -1694 -12 -1694 -7 0 -112 -2 -233 -3
l-220 -2 -5 -114 c-3 -62 -2 -117 1 -122 3 -5 267 -8 635 -7 l629 3 0 120 0
120 -235 2 -235 2 -7 1468 c-4 807 -4 1471 1 1476 4 4 45 -46 92 -110 47 -65
193 -266 324 -448 131 -181 356 -492 500 -690 143 -198 281 -388 305 -422 25
-34 203 -279 396 -545 488 -672 652 -900 701 -971 23 -33 49 -65 57 -69 9 -5
57 -7 107 -6 l92 3 1 1965 1 1965 230 5 230 5 3 118 3 117 -631 0 -631 0 3
-117 3 -118 231 -3 231 -2 6 -1423 c2 -782 2 -1425 -2 -1429 -3 -4 -105 129
-226 295 -120 166 -252 347 -292 402 -40 55 -377 519 -750 1031 -373 513 -709
976 -748 1029 -38 53 -109 151 -157 216 l-88 119 -455 0 -456 0 3 -117z"/>
<path d="M32092 12963 l3 -118 178 -3 178 -2 119 -183 c65 -100 161 -247 213
-327 52 -80 159 -244 237 -365 78 -121 178 -274 221 -340 392 -602 471 -723
482 -745 9 -19 11 -207 9 -848 l-2 -822 -224 6 c-133 4 -225 3 -229 -2 -4 -8
-11 -191 -8 -231 1 -10 157 -13 746 -13 l746 0 -3 123 -3 122 -225 0 c-124 1
-231 2 -237 3 -10 2 -13 177 -13 839 l0 838 37 60 c20 33 113 184 206 335 93
151 206 334 250 405 44 72 96 157 117 190 75 121 185 301 196 320 6 11 35 58
64 105 57 92 157 256 253 415 33 55 65 103 71 107 6 4 82 8 169 8 l157 0 0
120 0 120 -625 0 -625 0 0 -120 0 -120 269 0 c149 0 272 -3 274 -8 3 -4 -20
-48 -50 -97 -31 -50 -68 -110 -83 -135 -15 -25 -105 -173 -200 -330 -95 -157
-269 -447 -388 -645 -118 -198 -222 -368 -231 -377 -18 -19 4 -50 -323 452
-63 96 -254 389 -426 651 -172 262 -312 480 -312 483 0 3 124 6 275 6 l275 0
5 23 c3 12 5 65 3 117 l-3 95 -773 3 -773 2 3 -117z"/>
<path d="M13932 6913 l3 -127 1110 0 1110 0 3 127 3 127 -1116 0 -1116 0 3
-127z"/>
<path d="M14252 4925 c-86 -28 -156 -70 -221 -134 -73 -72 -111 -133 -141
-225 -27 -82 -28 -269 -1 -349 60 -182 192 -298 509 -444 150 -70 244 -132
279 -184 25 -37 28 -52 28 -118 -1 -146 -79 -228 -226 -239 -101 -7 -207 35
-276 109 -31 35 -90 135 -109 188 -10 25 -23 61 -30 79 l-13 33 -83 -52 c-46
-28 -113 -70 -150 -92 -61 -37 -68 -44 -68 -73 0 -17 7 -49 16 -70 95 -233
238 -372 459 -446 61 -20 89 -23 225 -23 135 0 164 3 224 23 112 38 167 71
242 146 105 105 155 219 168 386 14 170 -28 303 -131 412 -75 79 -165 137
-376 244 -246 124 -300 165 -333 251 -46 120 48 244 183 243 72 -1 148 -43
200 -110 24 -30 51 -65 60 -77 l18 -23 147 93 c90 56 147 98 148 108 0 29 -95
163 -151 212 -61 54 -167 110 -249 132 -70 19 -288 18 -348 0z"/>
<path d="M17590 4589 l0 -351 -27 22 c-124 95 -182 115 -338 115 -132 0 -205
-15 -303 -62 -74 -36 -187 -144 -235 -224 -77 -131 -115 -321 -104 -528 17
-334 161 -557 419 -649 65 -23 88 -26 218 -26 142 -1 146 0 212 30 36 18 87
51 112 74 l46 43 0 -67 0 -66 180 0 180 0 2 895 c2 492 3 950 3 1018 l0 122
-182 3 -183 2 0 -351z m-194 -540 c75 -28 134 -84 172 -162 38 -80 52 -146 52
-257 0 -200 -67 -341 -194 -408 -44 -23 -63 -27 -136 -27 -73 0 -92 4 -136 27
-52 28 -113 87 -137 135 -87 172 -76 431 25 580 77 115 224 161 354 112z"/>
<path d="M19007 4355 c-90 -31 -154 -74 -227 -151 -33 -36 -60 -59 -61 -52 0
7 -1 56 -2 108 l-2 95 -179 0 -180 0 -2 -727 c-2 -545 1 -727 9 -730 7 -2 89
-4 182 -4 l170 1 2 357 c2 308 5 370 22 452 50 244 185 385 346 361 60 -10
104 -41 135 -95 l25 -45 5 -515 5 -515 155 -3 c85 -1 165 0 178 3 l22 5 0 558
c0 595 -2 617 -51 713 -48 94 -153 171 -271 198 -81 19 -205 13 -281 -14z"/>
<path d="M20409 4356 c-240 -63 -411 -247 -475 -511 -21 -87 -28 -257 -15
-349 30 -213 140 -405 290 -505 76 -51 117 -68 213 -93 70 -17 102 -20 222
-15 221 8 329 51 461 182 76 75 155 192 155 228 0 15 -19 24 -199 90 -80 29
-85 29 -95 12 -29 -49 -90 -117 -128 -143 -154 -105 -386 -72 -483 68 -31 45
-65 131 -65 165 l0 25 488 0 c294 0 492 4 498 9 5 6 7 69 3 158 -5 131 -10
159 -38 242 -42 125 -89 201 -176 286 -123 120 -270 175 -464 175 -77 -1 -129
-7 -192 -24z m304 -306 c29 -11 71 -35 93 -54 39 -33 87 -114 100 -168 l6 -28
-306 0 c-285 0 -306 1 -306 18 1 50 74 155 143 204 68 48 184 60 270 28z"/>
<path d="M15136 4352 c-3 -5 40 -123 95 -263 227 -577 419 -1078 419 -1094 0
-9 -18 -65 -41 -123 -41 -108 -73 -193 -130 -344 -17 -46 -39 -105 -50 -132
-35 -90 -43 -86 151 -86 197 0 181 -9 223 120 26 77 52 149 67 185 5 11 67
182 139 380 148 414 354 972 436 1188 31 82 54 155 51 163 -5 12 -35 14 -182
12 l-176 -3 -48 -145 c-103 -307 -239 -700 -250 -720 -6 -12 -14 -19 -18 -16
-3 4 -18 41 -33 84 -104 292 -284 779 -292 790 -11 14 -352 18 -361 4z"/>
<path d="M21347 4354 c-3 -4 0 -21 7 -38 30 -72 255 -646 380 -970 l134 -348
-55 -147 c-79 -209 -109 -291 -142 -378 -16 -43 -34 -91 -40 -106 -23 -59 -27
-58 165 -55 l176 3 23 60 c23 58 56 147 145 395 64 175 81 223 90 245 5 11 20
52 33 90 22 62 46 127 117 320 10 28 32 86 48 130 17 44 54 143 82 220 82 224
92 249 100 270 4 11 18 47 30 80 12 33 26 69 30 80 38 97 50 130 50 141 0 11
-34 14 -180 14 l-179 0 -15 -27 c-7 -16 -64 -176 -126 -358 -61 -181 -125
-370 -142 -418 -18 -53 -34 -85 -39 -80 -8 8 -175 455 -258 688 -11 33 -31 89
-44 125 l-24 65 -180 3 c-98 1 -182 0 -186 -4z"/>
<path d="M25340 2129 c-62 -18 -99 -39 -131 -77 -81 -97 -76 -229 11 -321 108
-113 314 -84 378 53 16 34 22 65 22 119 0 64 -4 79 -30 120 -35 56 -87 90
-158 106 -29 6 -54 11 -55 10 -1 0 -18 -5 -37 -10z"/>
<path d="M16795 2064 c-11 -2 -40 -10 -65 -16 -117 -29 -219 -112 -274 -223
-29 -59 -56 -198 -56 -286 l0 -59 -90 0 -91 0 3 -152 3 -153 90 -5 90 -5 3
-568 2 -567 175 0 175 0 2 568 3 567 150 5 150 5 3 153 3 152 -150 0 c-173 0
-165 -5 -156 101 11 123 58 171 168 170 34 0 82 -7 106 -16 24 -8 49 -15 56
-15 7 0 20 30 30 68 9 37 27 100 38 141 l21 74 -24 16 c-44 30 -104 42 -225
46 -66 2 -129 2 -140 -1z"/>
<path d="M33245 2057 c-3 -7 -2 -464 2 -1017 l8 -1005 175 0 175 0 3 58 c2 31
6 57 9 57 3 0 24 -16 46 -36 22 -20 70 -51 106 -68 64 -30 70 -31 206 -30 212
0 323 42 450 169 129 129 184 282 192 530 7 202 -15 324 -81 458 -64 129 -178
236 -306 284 -206 79 -423 60 -560 -48 -43 -34 -51 -37 -57 -23 -3 9 -4 161
-1 338 4 176 4 327 1 334 -7 18 -362 17 -368 -1z m788 -894 c128 -57 206 -212
207 -409 0 -193 -77 -349 -204 -413 -128 -63 -288 -21 -376 100 -125 173 -110
514 30 658 96 99 214 121 343 64z"/>
<path d="M24426 1990 c-59 -38 -109 -70 -111 -70 -17 0 -115 -76 -115 -89 -1
-9 -2 -90 -3 -181 l-2 -165 -105 -3 c-58 -1 -108 -6 -113 -11 -4 -4 -5 -74 -1
-154 l7 -147 108 0 108 0 3 -377 c5 -403 7 -428 59 -538 48 -102 160 -192 284
-226 63 -18 294 -19 350 -2 80 25 79 21 36 171 -22 73 -41 136 -44 139 -3 3
-27 -2 -53 -11 -109 -37 -205 -7 -252 79 -15 26 -17 78 -20 398 l-3 367 184 0
c136 0 187 3 195 13 6 7 10 67 9 152 l-2 140 -192 3 -193 2 0 290 c0 242 -2
290 -14 290 -8 0 -62 -31 -120 -70z"/>
<path d="M13907 2044 c-4 -4 -7 -456 -7 -1004 0 -761 3 -999 12 -1008 18 -18
352 -17 367 2 8 10 10 282 9 1012 l-3 999 -186 3 c-102 1 -188 -1 -192 -4z"/>
<path d="M29607 2044 c-4 -4 -7 -456 -7 -1004 0 -761 3 -999 12 -1008 8 -8 64
-12 184 -12 142 0 174 3 184 15 10 13 12 104 7 444 -3 235 -2 433 2 439 6 9
104 12 402 10 l394 -3 2 -444 c1 -280 5 -446 11 -450 6 -3 88 -4 183 -1 l174
5 3 1008 2 1007 -187 -2 -188 -3 -1 -370 c-1 -203 -2 -376 -3 -382 -1 -10 -87
-13 -396 -13 l-395 0 -2 383 -3 382 -186 3 c-102 1 -188 -1 -192 -4z"/>
<path d="M15470 1504 c-126 -22 -211 -66 -310 -160 l-79 -76 -3 104 -3 103
-177 3 -178 2 0 -725 0 -725 178 2 177 3 6 380 c7 407 9 421 64 559 34 83 116
176 178 201 96 39 197 14 252 -64 l30 -43 5 -516 5 -517 178 -3 177 -2 0 558
c0 595 -2 617 -51 713 -43 86 -145 162 -249 187 -55 13 -166 22 -200 16z"/>
<path d="M17868 1500 c-279 -35 -495 -209 -582 -471 -64 -191 -54 -443 25
-617 81 -181 221 -305 414 -369 74 -25 93 -27 250 -27 158 -1 176 1 255 26 47
15 114 44 149 65 80 47 185 151 230 226 109 185 137 464 70 683 -72 234 -244
400 -480 463 -88 23 -238 33 -331 21z m259 -341 c238 -115 288 -537 89 -747
-130 -138 -352 -133 -481 10 -84 93 -121 211 -112 358 11 181 83 315 205 379
13 7 51 18 84 25 74 15 151 6 215 -25z"/>
<path d="M19740 1500 c-109 -20 -227 -91 -293 -176 l-42 -54 -5 103 -5 102
-183 3 -182 2 2 -722 3 -723 175 -6 c119 -4 178 -2 183 5 5 6 6 144 4 306 -4
225 -2 317 9 390 35 233 113 364 254 427 51 23 185 23 229 -1 18 -10 37 -14
41 -9 4 4 19 70 34 145 15 75 30 146 33 157 4 17 -2 24 -28 35 -43 18 -171 27
-229 16z"/>
<path d="M20912 1499 c-93 -16 -160 -54 -249 -145 l-82 -84 -3 103 -3 102
-177 3 -178 2 0 -724 c0 -692 1 -725 18 -730 22 -7 320 2 333 10 5 3 9 145 9
317 1 318 7 408 36 532 50 208 183 336 319 305 48 -11 84 -37 110 -81 19 -33
20 -57 25 -554 l5 -520 178 -3 177 -2 0 342 c0 245 4 367 14 428 36 219 117
348 242 386 87 26 171 -6 209 -81 19 -38 20 -63 23 -558 l3 -517 177 2 177 3
3 530 c3 574 0 624 -48 722 -94 196 -357 276 -574 175 -72 -34 -171 -122 -216
-192 -18 -28 -34 -50 -35 -50 -2 0 -15 25 -29 55 -53 117 -175 206 -307 225
-74 11 -85 11 -157 -1z"/>
<path d="M23080 1499 c-134 -18 -242 -69 -327 -156 -57 -58 -114 -163 -116
-214 l-2 -33 115 -27 c192 -46 174 -46 205 6 55 94 163 137 287 115 77 -14
106 -29 146 -74 34 -39 45 -78 40 -146 l-3 -45 -200 -7 c-161 -5 -214 -10
-275 -28 -103 -30 -182 -74 -249 -140 -89 -88 -124 -176 -124 -310 1 -209 89
-337 283 -411 47 -18 270 -18 325 0 84 28 163 73 213 121 29 28 57 48 62 45 4
-3 11 -24 15 -48 4 -23 11 -59 16 -79 l10 -38 144 0 145 0 0 483 c-1 541 -5
589 -64 714 -63 132 -181 222 -337 257 -85 19 -229 26 -309 15z m356 -874 c7
-18 -10 -96 -31 -141 -8 -17 -36 -51 -63 -76 -69 -65 -149 -98 -234 -98 -58 0
-96 17 -132 60 -50 60 -28 180 42 226 52 34 104 43 260 43 128 1 154 -1 158
-14z"/>
<path d="M26480 1504 c-96 -11 -163 -30 -247 -70 -185 -88 -308 -255 -354
-479 -17 -82 -20 -124 -16 -235 6 -157 23 -230 79 -350 34 -70 56 -100 127
-170 136 -135 243 -178 461 -187 175 -7 269 10 395 72 121 59 206 143 271 267
13 26 24 53 24 61 0 11 -288 137 -312 137 -4 0 -16 -17 -27 -37 -25 -51 -93
-127 -137 -153 -116 -73 -278 -63 -371 23 -87 80 -117 147 -134 297 -27 232
66 442 218 494 97 33 221 16 307 -43 42 -29 126 -136 126 -160 0 -20 34 -11
180 48 165 67 167 70 124 147 -91 163 -222 267 -394 313 -73 19 -250 33 -320
25z"/>
<path d="M27895 1501 c-106 -18 -232 -90 -286 -164 -128 -176 -116 -401 30
-540 65 -62 136 -99 311 -162 144 -52 194 -82 217 -129 43 -91 -45 -196 -163
-196 -35 0 -97 19 -140 42 -40 22 -87 75 -125 144 -17 30 -33 54 -35 54 -1 0
-25 -13 -51 -28 -26 -16 -82 -45 -123 -66 -111 -56 -111 -56 -75 -124 17 -32
65 -92 110 -138 63 -64 98 -89 165 -122 99 -49 159 -62 285 -62 287 0 505 202
505 468 0 92 -14 142 -57 209 -57 87 -143 139 -339 206 -159 55 -203 77 -238
117 -44 53 -27 133 36 166 68 35 199 0 269 -73 18 -18 37 -33 42 -33 5 0 55
43 112 97 l104 96 -17 30 c-21 36 -108 114 -162 144 -96 55 -260 82 -375 64z"/>
<path d="M25215 1468 c-3 -7 -4 -332 -3 -723 l3 -710 178 -3 177 -2 0 725 0
725 -175 0 c-131 0 -177 -3 -180 -12z"/>
<path d="M31590 927 c0 -461 3 -563 15 -612 38 -148 106 -222 259 -284 43 -18
203 -25 269 -12 96 18 181 65 264 146 41 41 76 68 78 62 3 -7 6 -52 7 -102 l3
-90 175 0 175 0 6 715 c4 393 5 718 2 723 -2 4 -85 7 -183 7 l-179 0 -3 -387
c-4 -354 -6 -394 -24 -459 -58 -201 -173 -324 -304 -324 -52 0 -115 27 -147
61 -52 57 -53 75 -53 598 0 267 0 492 0 499 0 9 -43 12 -180 12 l-180 0 0
-553z"/>
</g>
</svg>
